<?xml version="1.0" encoding="UTF-8" standalone="no"?>
<svg width="206px" height="113px" viewBox="0 0 206 113" version="1.1" xmlns="http://www.w3.org/2000/svg" xmlns:xlink="http://www.w3.org/1999/xlink">
    <!-- Generator: Sketch 3.6.1 (26313) - http://www.bohemiancoding.com/sketch -->
    <title>Council</title>
    <desc>Created with Sketch.</desc>
    <defs></defs>
    <g id="Logo" stroke="none" stroke-width="1" fill="none" fill-rule="evenodd">
        <g transform="translate(-85.000000, -277.000000)" id="Council">
            <g transform="translate(85.000000, 278.000000)">
                <g id="Council-Man" transform="translate(26.000000, 0.000000)">
                    <circle id="Oval-1" stroke="#616161" fill="#939393" cx="21" cy="15" r="15"></circle>
                    <rect id="Rectangle-1" stroke="#616161" fill="#939393" x="0" y="30" width="40" height="70" rx="8"></rect>
                    <path d="M1.47841883,76.1142411 L30.2935991,31.3785208 L34.7497183,31 L39.586625,58.7997471 L39.8524948,99.2379929 L1,99.3337509 L1.47841883,76.1142411 Z" id="Path-1" stroke="#772288" fill="#FFFFFF"></path>
                </g>
                <g id="Council-Man" transform="translate(0.000000, 12.000000)">
                    <circle id="Oval-1" stroke="#616161" fill="#939393" cx="21" cy="15" r="15"></circle>
                    <rect id="Rectangle-1" stroke="#616161" fill="#939393" x="0" y="30" width="40" height="70" rx="8"></rect>
                    <path d="M1.47841883,76.1142411 L30.2935991,31.3785208 L34.7497183,31 L39.586625,58.7997471 L39.8524948,99.2379929 L1,99.3337509 L1.47841883,76.1142411 Z" id="Path-1" stroke="#772288" fill="#FFFFFF"></path>
                </g>
                <g id="Council-Man" transform="translate(80.000000, 0.000000)">
                    <circle id="Oval-1" stroke="#616161" fill="#939393" cx="21" cy="15" r="15"></circle>
                    <rect id="Rectangle-1" stroke="#616161" fill="#939393" x="0" y="30" width="40" height="70" rx="8"></rect>
                    <path d="M1.47841883,76.1142411 L30.2935991,31.3785208 L34.7497183,31 L39.586625,58.7997471 L39.8524948,99.2379929 L1,99.3337509 L1.47841883,76.1142411 Z" id="Path-1" stroke="#772288" fill="#FFFFFF"></path>
                </g>
                <g id="Council-Man" transform="translate(137.000000, 0.000000)">
                    <circle id="Oval-1" stroke="#616161" fill="#939393" cx="21" cy="15" r="15"></circle>
                    <rect id="Rectangle-1" stroke="#616161" fill="#939393" x="0" y="30" width="40" height="70" rx="8"></rect>
                    <path d="M1.47841883,76.1142411 L30.2935991,31.3785208 L34.7497183,31 L39.586625,58.7997471 L39.8524948,99.2379929 L1,99.3337509 L1.47841883,76.1142411 Z" id="Path-1" stroke="#772288" fill="#FFFFFF"></path>
                </g>
                <g id="Council-Man" transform="translate(55.000000, 12.000000)">
                    <circle id="Oval-1" stroke="#616161" fill="#939393" cx="21" cy="15" r="15"></circle>
                    <rect id="Rectangle-1" stroke="#616161" fill="#939393" x="0" y="30" width="40" height="70" rx="8"></rect>
                    <path d="M1.47841883,76.1142411 L30.2935991,31.3785208 L34.7497183,31 L39.586625,58.7997471 L39.8524948,99.2379929 L1,99.3337509 L1.47841883,76.1142411 Z" id="Path-1" stroke="#772288" fill="#FFFFFF"></path>
                </g>
                <g id="Council-Man" transform="translate(165.000000, 12.000000)">
                    <circle id="Oval-1" stroke="#616161" fill="#939393" cx="21" cy="15" r="15"></circle>
                    <rect id="Rectangle-1" stroke="#616161" fill="#939393" x="0" y="30" width="40" height="70" rx="8"></rect>
                    <path d="M1.47841883,76.1142411 L30.2935991,31.3785208 L34.7497183,31 L39.586625,58.7997471 L39.8524948,99.2379929 L1,99.3337509 L1.47841883,76.1142411 Z" id="Path-1" stroke="#772288" fill="#FFFFFF"></path>
                </g>
                <g id="Council-Man" transform="translate(110.000000, 12.000000)">
                    <circle id="Oval-1" stroke="#616161" fill="#939393" cx="21" cy="15" r="15"></circle>
                    <rect id="Rectangle-1" stroke="#616161" fill="#939393" x="0" y="30" width="40" height="70" rx="8"></rect>
                    <path d="M1.47841883,76.1142411 L30.2935991,31.3785208 L34.7497183,31 L39.586625,58.7997471 L39.8524948,99.2379929 L1,99.3337509 L1.47841883,76.1142411 Z" id="Path-1" stroke="#772288" fill="#FFFFFF"></path>
                </g>
                <g id="Council-Man-Copy" transform="translate(110.000000, 12.000000)">
                    <circle id="Oval-1" stroke="#616161" fill="#939393" cx="21" cy="15" r="15"></circle>
                    <rect id="Rectangle-1" stroke="#616161" fill="#939393" x="0" y="30" width="40" height="70" rx="8"></rect>
                    <path d="M1.47841883,76.1142411 L30.2935991,31.3785208 L34.7497183,31 L39.586625,58.7997471 L39.8524948,99.2379929 L1,99.3337509 L1.47841883,76.1142411 Z" id="Path-1" stroke="#772288" fill="#FFFFFF"></path>
                </g>
            </g>
        </g>
    </g>
</svg>